<?xml version="1.0" standalone="no"?>
<!DOCTYPE svg PUBLIC "-//W3C//DTD SVG 20010904//EN"
 "http://www.w3.org/TR/2001/REC-SVG-20010904/DTD/svg10.dtd">
<svg version="1.0" xmlns="http://www.w3.org/2000/svg"
 width="2000.000000pt" height="650.000000pt" viewBox="0 0 2000.000000 650.000000"
 preserveAspectRatio="xMidYMid meet">

<g transform="translate(0.000000,650.000000) scale(0.100000,-0.100000)"
fill="#f8f9fa" stroke="none">
<path d="M1460 5439 c-350 -32 -692 -279 -865 -626 -87 -175 -118 -344 -113
-618 l3 -160 331 -3 332 -2 4 197 c6 229 20 291 88 386 79 110 186 167 315
168 130 1 208 -33 293 -126 118 -128 150 -273 98 -439 -29 -94 73 51 -1099
-1557 l-347 -477 2 -323 3 -324 1058 -3 1057 -2 0 335 0 335 -630 0 c-346 0
-630 3 -630 6 0 3 242 337 537 742 295 405 555 766 577 802 41 68 108 222 120
277 l8 33 311 2 312 3 6 190 c5 157 9 200 26 247 41 112 116 192 229 245 52
25 71 28 159 28 92 0 106 -3 168 -32 162 -77 247 -226 247 -433 0 -148 -39
-256 -123 -340 -92 -92 -182 -120 -383 -120 l-111 0 -8 -320 c-5 -237 -4 -324
4 -334 9 -11 51 -15 174 -18 152 -3 165 -5 212 -30 89 -47 172 -151 211 -268
16 -45 19 -85 19 -225 -1 -193 -10 -232 -88 -348 -156 -232 -509 -219 -663 25
-56 89 -67 138 -73 338 l-6 185 -330 0 -330 0 0 -205 c0 -132 5 -230 14 -275
70 -355 309 -663 635 -816 311 -145 686 -122 983 61 101 62 237 189 315 294
55 73 148 246 148 274 0 9 138 12 595 12 l595 0 0 -335 0 -335 333 2 332 3 3
333 2 332 200 0 200 0 0 -335 0 -335 1838 3 1837 2 0 335 0 335 -583 3 -582 2
2 483 3 482 580 5 580 5 -3 325 c-2 179 -6 328 -8 332 -3 5 -264 8 -580 8
l-574 0 0 430 0 430 564 0 c310 0 571 3 580 6 14 5 16 44 16 335 l0 329 -910
0 -910 0 0 -657 c0 -1205 -12 -2535 -24 -2523 -7 7 -201 10 -583 10 l-573 0 0
1585 0 1585 -332 -2 -333 -3 -3 -1257 -2 -1258 -200 0 -200 0 0 488 c0 268 -3
835 -7 1260 l-6 772 -328 0 -329 0 -14 -22 c-8 -13 -265 -548 -572 -1190 -307
-642 -560 -1166 -562 -1163 -3 2 -15 37 -29 77 -36 106 -118 261 -190 356
l-62 82 64 84 c110 147 166 254 207 401 26 91 37 417 18 534 -55 345 -284 649
-605 802 -173 83 -367 117 -563 98 -358 -34 -695 -266 -865 -597 -25 -48 -51
-106 -58 -129 -7 -24 -15 -43 -18 -43 -3 0 -18 33 -33 73 -83 218 -285 451
-493 568 -189 106 -393 148 -615 128z m4390 -1979 l0 -600 -281 0 c-235 0
-280 2 -277 14 4 17 551 1186 555 1186 2 0 3 -270 3 -600z"/>
<path d="M13909 5439 c-404 -35 -788 -347 -921 -749 -54 -162 -53 -138 -53
-1235 0 -955 1 -1025 19 -1105 117 -538 597 -912 1124 -876 271 19 489 116
682 306 193 189 298 399 329 660 8 63 11 259 9 590 l-3 495 -540 0 -540 0 0
-330 0 -330 208 -3 207 -2 0 -158 c0 -237 -28 -334 -125 -436 -232 -241 -619
-117 -691 223 -11 54 -14 232 -14 972 0 575 4 926 10 960 34 179 186 336 346
357 163 21 303 -46 396 -191 55 -86 70 -153 76 -344 l5 -173 333 0 334 0 0
178 c0 104 -6 217 -15 275 -67 445 -410 812 -840 897 -113 22 -225 29 -336 19z"/>
<path d="M10909 5383 l-156 -3 -6 -533 c-4 -292 -7 -1159 -7 -1925 l0 -1393
588 4 c629 4 619 3 795 59 327 103 621 396 732 728 59 176 57 153 62 1070 5
918 0 1047 -43 1197 -108 379 -405 671 -789 775 -76 21 -101 22 -550 23 -258
1 -540 0 -626 -2z m1039 -678 c73 -22 168 -97 219 -173 77 -115 74 -60 71
-1063 l-3 -894 -23 -57 c-49 -121 -160 -232 -280 -280 -52 -20 -76 -23 -291
-26 l-234 -4 6 783 c4 430 7 995 7 1255 l0 474 173 3 c219 5 290 1 355 -18z"/>
<path d="M15138 3468 c-2 -1052 -1 -1919 1 -1925 2 -10 195 -13 917 -13 l914
0 -2 337 -3 338 -577 3 -578 2 0 485 0 485 580 0 580 0 0 313 c0 171 -3 322
-6 335 l-6 22 -574 0 -574 0 0 430 0 430 573 2 572 3 3 333 2 332 -910 0 -910
0 -2 -1912z"/>
<path d="M17117 4323 c-4 -582 -7 -1448 -7 -1925 l0 -868 335 0 335 0 0 825 0
825 223 0 c240 0 280 -6 382 -57 65 -34 152 -123 193 -201 60 -112 62 -134 62
-794 l0 -598 336 0 335 0 -4 667 c-3 636 -5 672 -24 754 -43 173 -118 330
-223 460 l-50 63 24 20 c41 36 132 151 170 216 48 82 110 228 130 307 41 158
39 384 -4 554 -100 395 -459 722 -869 794 -68 12 -204 15 -711 15 l-627 0 -6
-1057z m1242 386 c72 -16 150 -60 206 -116 66 -64 99 -120 119 -198 54 -205
-42 -404 -243 -503 l-75 -37 -293 -3 -293 -3 0 435 0 436 268 0 c147 0 287 -5
311 -11z"/>
</g>
</svg>
